<svg xmlns="http://www.w3.org/2000/svg" width="520" height="400" viewBox="0 0 520 400" fill="none" aria-hidden="true">
  <defs>
    <linearGradient id="g1" x1="0" y1="0" x2="520" y2="400" gradientUnits="userSpaceOnUse">
      <stop stop-color="#c4b5fd" stop-opacity="0.14"/>
      <stop offset="1" stop-color="#fda4af" stop-opacity="0.1"/>
    </linearGradient>
    <linearGradient id="g2" x1="0" y1="0" x2="1" y2="1">
      <stop stop-color="#a78bfa"/>
      <stop offset="1" stop-color="#e879a9"/>
    </linearGradient>
  </defs>
  <rect width="520" height="400" rx="12" fill="#231f2e" stroke="rgba(245,243,255,0.12)" stroke-width="1"/>
  <rect x="32" y="32" width="456" height="336" rx="8" fill="url(#g1)"/>
  <rect x="72" y="56" width="376" height="288" rx="8" fill="#14121c" stroke="rgba(245,243,255,0.1)" stroke-width="1"/>
  <rect x="72" y="56" width="376" height="44" rx="8" fill="#231f2e"/>
  <rect x="72" y="86" width="376" height="14" fill="#231f2e"/>
  <circle cx="96" cy="78" r="5" fill="#fb7185" opacity="0.95"/>
  <circle cx="114" cy="78" r="5" fill="#fcd34d" opacity="0.95"/>
  <circle cx="132" cy="78" r="5" fill="#6ee7b7" opacity="0.95"/>
  <text x="260" y="82" text-anchor="middle" fill="#b4adc4" font-family="ui-sans-serif, system-ui, sans-serif" font-size="12" font-weight="600">Messages</text>
  <rect x="88" y="100" width="100" height="228" rx="6" fill="rgba(245,243,255,0.04)"/>
  <rect x="96" y="112" width="84" height="32" rx="6" fill="rgba(196,181,253,0.15)" stroke="rgba(196,181,253,0.3)"/>
  <rect x="96" y="156" width="72" height="10" rx="4" fill="rgba(245,243,255,0.08)"/>
  <rect x="96" y="174" width="64" height="10" rx="4" fill="rgba(245,243,255,0.05)"/>
  <rect x="96" y="192" width="76" height="10" rx="4" fill="rgba(245,243,255,0.05)"/>
  <rect x="200" y="100" width="232" height="228" rx="6" fill="rgba(245,243,255,0.02)"/>
  <rect x="216" y="116" width="120" height="10" rx="4" fill="rgba(245,243,255,0.12)"/>
  <rect x="216" y="132" width="90" height="8" rx="3" fill="rgba(245,243,255,0.06)"/>
  <rect x="216" y="164" width="160" height="40" rx="8" fill="rgba(196,181,253,0.12)" stroke="rgba(196,181,253,0.35)"/>
  <rect x="188" y="216" width="180" height="36" rx="8" fill="rgba(110,231,183,0.1)" stroke="rgba(110,231,183,0.28)"/>
  <rect x="248" y="264" width="128" height="12" rx="4" fill="rgba(232,121,169,0.35)"/>
  <circle cx="228" cy="274" r="4" fill="url(#g2)"/>
  <circle cx="242" cy="274" r="4" fill="url(#g2)" opacity="0.75"/>
  <circle cx="256" cy="274" r="4" fill="url(#g2)" opacity="0.5"/>
  <rect x="200" y="292" width="232" height="36" rx="6" fill="#231f2e" stroke="rgba(245,243,255,0.1)"/>
  <rect x="404" y="300" width="20" height="20" rx="5" fill="#a78bfa" opacity="0.95"/>
</svg>
