<svg xmlns="http://www.w3.org/2000/svg" width="40" height="40" viewBox="0 0 40 40" fill="none" aria-hidden="true">
  <defs>
    <linearGradient id="imj-grad" x1="6" y1="8" x2="34" y2="32" gradientUnits="userSpaceOnUse">
      <stop stop-color="#a78bfa"/>
      <stop offset="0.55" stop-color="#c4b5fd"/>
      <stop offset="1" stop-color="#6ee7b7"/>
    </linearGradient>
    <linearGradient id="imj-leaf" x1="24" y1="6" x2="34" y2="16" gradientUnits="userSpaceOnUse">
      <stop stop-color="#6ee7b7"/>
      <stop offset="1" stop-color="#34d399"/>
    </linearGradient>
  </defs>
  <rect width="40" height="40" rx="11" fill="#1e1a28" stroke="rgba(245,243,255,0.14)" stroke-width="1"/>
  <path d="M26 7.5c2.2 3.8-.8 8.2-6.5 9.5 3.5-2.8 2.8-6.2 6.5-9.5z" fill="url(#imj-leaf)"/>
  <path d="M9.5 13.5h17a2.8 2.8 0 012.8 2.8v6.4a2.8 2.8 0 01-2.8 2.8h-5.2l-3.6 3.6v-3.6H9.5a2.8 2.8 0 01-2.8-2.8v-6.4a2.8 2.8 0 012.8-2.8z" fill="url(#imj-grad)"/>
  <circle cx="14.2" cy="19.5" r="1.35" fill="#1a1025"/>
  <circle cx="18" cy="19.5" r="1.35" fill="#1a1025"/>
  <circle cx="21.8" cy="19.5" r="1.35" fill="#1a1025"/>
</svg>
